# xmcd
#
# Track frame offsets:
#	150
#	16802
#	34621
#	48601
#	61689
#	76295
#	94321
#	114670
#	126006
#	144670
#	164495
#	178613
#	199771
#	217750
#	233127
#	261252
#
# Disc length: 3498 seconds
#
# Revision: 1
# Processed by: cddbd v1.5.2PL0 Copyright (c) Steve Scherf et al.
# Submitted via: audiograbber 1.83.01
#
DISCID=d80da810
DTITLE=Allan, Gary - CB90257
DYEAR=1900
DGENRE=Karaoke
TTITLE0=Nothin' On But The Radio
TTITLE1=Man To Man
TTITLE2=It Would Be You
TTITLE3=Her Man
TTITLE4=Right Where I Need To Be
TTITLE5=One, The
TTITLE6=Songs About Rain
TTITLE7=Living In A House Full Of Love
TTITLE8=Tough Little Boys
TTITLE9=No Man In His Wrong Heart
TTITLE10=I'll Take Today
TTITLE11=Smoke Rings In The Dark
TTITLE12=I'm Doing My Best
TTITLE13=From Where I'm Sitting
TTITLE14=Man Of Me
TTITLE15=Data
EXTD=
EXTT0=
EXTT1=
EXTT2=
EXTT3=
EXTT4=
EXTT5=
EXTT6=
EXTT7=
EXTT8=
EXTT9=
EXTT10=
EXTT11=
EXTT12=
EXTT13=
EXTT14=
EXTT15=
PLAYORDER=
